<svg width="83" height="15" viewBox="0 0 83 15" fill="none" xmlns="http://www.w3.org/2000/svg">
<path d="M22.1362 4.358H24.1854V12.1629H22.1362V4.358Z" fill="#725814"/>
<path d="M31.4859 12.1629L27.804 8.46876V12.1629H25.7549V4.358H26.5871L30.2791 8.04194V4.358H32.3282V12.1629H31.4859Z" fill="#725814"/>
<path d="M33.7324 4.34811H39.8792V6.38763H37.8097V12.1632H35.7606V6.38763H33.7324V4.34811Z" fill="#725814"/>
<path d="M41.2937 4.358H46.1404V6.0545H43.3428V7.32418H45.8179V9.05182H43.3428V10.4879H46.1404V12.1635H41.2937V4.3586V4.358Z" fill="#725814"/>
<path d="M52.1315 12.1629L50.9248 10.0922H49.6558V12.1629H47.6067V4.358H50.8931C52.4737 4.358 53.7636 5.64864 53.7636 7.2302C53.7636 8.06289 53.3999 8.81177 52.8381 9.33257L54.4918 12.1635H52.1309L52.1315 12.1629ZM49.6564 8.32269H50.9254C51.5494 8.32269 52.049 7.83362 52.049 7.20925C52.049 6.58488 51.55 6.08563 50.9254 6.08563H49.6564V8.32329V8.32269Z" fill="#725814"/>
<path d="M55.5007 4.358H57.5499V10.1024H60.3582V12.1629H55.5007V4.358Z" fill="#725814"/>
<path d="M61.3044 12.1629L64.945 4.358H65.8706L69.5422 12.1629H67.4931L67.0145 11.1428H63.8214L63.3536 12.1629H61.3044ZM64.6225 9.41578H66.214L65.4236 7.69893L64.6225 9.41578Z" fill="#725814"/>
<path d="M75.1367 6.9396C74.8143 6.61694 74.3566 6.42957 73.8265 6.42957C72.7657 6.42957 71.9957 7.1994 71.9957 8.26136C71.9957 9.32332 72.7651 10.0932 73.8265 10.0932C74.3572 10.0932 74.8143 9.90578 75.1367 9.57295L76.593 11.009C75.8858 11.7166 74.9082 12.1644 73.8265 12.1644C71.6733 12.1644 69.9263 10.4158 69.9263 8.26196C69.9263 6.10811 71.6739 4.35953 73.8265 4.35953C74.898 4.35953 75.8649 4.78635 76.572 5.49392L75.1367 6.9402V6.9396Z" fill="#725814"/>
<path d="M78.1536 4.358H83.0003V6.0545H80.2027V7.32418H82.6778V9.05182H80.2027V10.4879H83.0003V12.1635H78.1536V4.3586V4.358Z" fill="#725814"/>
<path d="M4.61614 9.17028C3.69358 8.25978 3.68341 6.768 4.5934 5.84492C5.50339 4.92184 6.99432 4.91167 7.91687 5.82217L12.3693 10.2167L14.6326 8.1173L10.054 3.65396C7.93662 1.56416 4.51443 1.5875 2.42581 3.70604C0.347968 5.8138 0.360533 9.21279 2.44496 11.3056L4.89673 14.0144L7.15287 11.97L4.67477 9.23194C4.65562 9.21099 4.63588 9.19004 4.61554 9.16968L4.61614 9.17028Z" fill="#725814"/>
<path d="M18.1194 11.1073C18.8236 9.99984 19.1939 8.7116 19.1795 7.36828C19.1604 5.53769 18.4299 3.82443 17.1226 2.54397C15.8333 1.28027 14.1348 0.587067 12.3328 0.587067C12.3082 0.587067 12.2837 0.587067 12.2592 0.587067L10.6857 0.603828L10.7126 3.17552L12.2861 3.15876C13.4306 3.14439 14.5081 3.58079 15.3248 4.38115C16.1415 5.18151 16.5979 6.25185 16.6099 7.39522C16.6219 8.53859 16.1881 9.61852 15.3882 10.4356C14.5883 11.2528 13.5186 11.7095 12.3758 11.7215C12.3609 11.7215 12.3459 11.7215 12.3304 11.7215C11.0985 11.7215 9.93723 11.0708 9.12297 10.1423L7.18213 11.9597C8.48579 13.4455 10.3584 14.2932 12.3304 14.2932C12.3543 14.2932 12.3788 14.2932 12.4028 14.2932C13.3971 14.283 14.3574 14.0615 15.2321 13.652L18.7805 14.3896L18.1194 11.1079V11.1073Z" fill="#725814"/>
</svg>
