<svg width="125" height="22" viewBox="0 0 125 22" fill="none" xmlns="http://www.w3.org/2000/svg">
<path fill-rule="evenodd" clip-rule="evenodd" d="M28.4293 11.1745C28.4511 13.2071 27.8907 15.1565 26.8251 16.8322V16.8331L27.8255 21.7988L22.4562 20.6828C21.1326 21.3024 19.6796 21.6376 18.175 21.653H18.0655C15.0816 21.653 12.248 20.3703 10.2753 18.1221L13.2121 15.372C14.4443 16.777 16.2014 17.7616 18.0655 17.7616H18.1343C19.8634 17.7435 21.4821 17.0523 22.6924 15.8159C23.9028 14.5795 24.5592 12.9454 24.5411 11.2153C24.523 9.48516 23.8322 7.86557 22.5965 6.6545C21.3607 5.44342 19.7303 4.78309 17.9985 4.80483L15.6175 4.83019L15.5768 0.938815L17.9577 0.913452H18.0691C20.7958 0.913452 23.366 1.96238 25.3169 3.87456C27.295 5.81209 28.4004 8.40453 28.4293 11.1745ZM6.39311 13.9003C4.99714 12.5225 4.98175 10.2652 6.35871 8.86848C7.73567 7.47172 9.99168 7.45632 11.3877 8.83406L18.1249 15.4836L21.5496 12.307L14.6214 5.5532C11.4175 2.39101 6.23921 2.42634 3.07881 5.63201C-0.065298 8.82138 -0.0462861 13.9646 3.10778 17.1313L6.8177 21.2301L10.2316 18.1368L6.48183 13.9936C6.45315 13.9622 6.42357 13.9308 6.39311 13.9003ZM59.751 6.60531H50.45V9.69141H53.5189V18.4307H56.6196V9.69141H59.751V6.60531ZM32.9034 6.62116H36.004V18.4312H32.9034V6.62116ZM47.0511 18.4312L41.4799 12.8414V18.4312H38.3792V6.62116H39.6385L45.2251 12.1955V6.62116H48.3258V18.4312H47.0511ZM61.8918 6.62116H69.2257V9.18824H64.9925V11.1095H68.7377V13.7236H64.9925V15.8967H69.2257V18.4321H61.8918V6.62207V6.62116ZM76.4651 15.2979L78.2911 18.4312L78.2902 18.4321H81.8625L79.3603 14.1485C80.2103 13.3604 80.7608 12.2272 80.7608 10.9673C80.7608 8.5741 78.8089 6.62116 76.4171 6.62116H71.4443V18.4312H74.545V15.2979H76.4651ZM76.466 12.6204H74.5459V9.23534H76.466C77.4111 9.23534 78.1662 9.99079 78.1662 10.9356C78.1662 11.8803 77.4102 12.6204 76.466 12.6204ZM83.3895 6.62116H86.4902V15.3134H90.7397V18.4312H83.3895V6.62116ZM97.6799 6.62116L92.1711 18.4312H95.2718L95.9797 16.8877H100.811L101.536 18.4312H104.636L99.0804 6.62116H97.6799ZM99.6 14.2744H97.1919L98.4041 11.6765L99.6 14.2744ZM113.102 10.5252C112.614 10.037 111.921 9.75347 111.119 9.75347C109.514 9.75347 108.349 10.9183 108.349 12.5253C108.349 14.1322 109.513 15.297 111.119 15.297C111.922 15.297 112.614 15.0135 113.102 14.5099L115.305 16.6829C114.235 17.7536 112.756 18.4312 111.119 18.4312C107.861 18.4312 105.218 15.7853 105.218 12.5262C105.218 9.26705 107.862 6.62116 111.119 6.62116C112.741 6.62116 114.204 7.26701 115.274 8.33768L113.102 10.5261V10.5252ZM125 6.62116H117.666V6.62207V18.4321H125V15.8967H120.767V13.7236H124.512V11.1095H120.767V9.18824H125V6.62116Z" fill="#725814"/>
</svg>
