<svg width="22" height="17" viewBox="0 0 22 17" fill="none" xmlns="http://www.w3.org/2000/svg">
<path id="rect4773" d="M2.00098 -0.000488281V2.00049H6.00194V-0.000488281C4.66829 -0.000488281 3.33463 -0.000488281 2.00098 -0.000488281ZM2.00098 2.00049C1.33399 2.00049 0.666992 2.00049 0 2.00049V14.9995H2.00098V2.00049ZM2.00098 14.9995V17.0005H6.00194V14.9995H2.00098ZM14 1.50245V3.50243H16.001V1.50245C15.334 1.50245 14.667 1.50245 14 1.50245ZM16.001 3.50243V5.50343H18.001V3.50243C17.3343 3.50243 16.6677 3.50243 16.001 3.50243ZM18.001 5.50343V7.49951C13.3343 7.49951 8.66768 7.49951 4.00098 7.49951V9.50049H18.001V11.5005H20.002V9.50049H21.9981V7.49951H20.002V5.50343C19.335 5.50343 18.668 5.50343 18.001 5.50343ZM18.001 11.5005C17.3343 11.5005 16.6677 11.5005 16.001 11.5005V13.5015H18.001V11.5005ZM16.001 13.5015C15.334 13.5015 14.667 13.5015 14 13.5015V15.5015H16.001V13.5015Z" fill="white"/>
</svg>
