<svg width="22" height="23" viewBox="0 0 22 23" fill="none" xmlns="http://www.w3.org/2000/svg">
<path d="M3.14286 6.78571H4.71429V8.35714H3.14286V6.78571Z" fill="white"/>
<path d="M4.71429 5.21429H6.28571V6.78571H4.71429V5.21429Z" fill="white"/>
<path d="M0 9.92857H1.57143V11.5H0V9.92857Z" fill="white"/>
<path d="M20.4286 9.92857H22V11.5H20.4286V9.92857Z" fill="white"/>
<path d="M18.8571 8.35714H20.4286V9.92857H18.8571V8.35714Z" fill="white"/>
<path d="M17.2857 6.78571H18.8571V8.35714H17.2857V6.78571Z" fill="white"/>
<path d="M15.7143 5.21429H17.2857V6.78571H15.7143V5.21429Z" fill="white"/>
<path d="M14.1429 3.64286H15.7143V5.21429H14.1429V3.64286Z" fill="white"/>
<path d="M12.5714 2.07143H14.1429V3.64286H12.5714V2.07143Z" fill="white"/>
<path d="M7.85714 2.07143H9.42857V3.64286H7.85714V2.07143Z" fill="white"/>
<path d="M6.28571 3.64286H7.85714V5.21429H6.28571V3.64286Z" fill="white"/>
<path d="M1.57143 8.35714H3.14286V9.92857H1.57143V8.35714Z" fill="white"/>
<path d="M3.14286 11.5H1.57143V20.9286H3.14286V11.5Z" fill="white"/>
<path d="M3.14286 20.9286V22.5H7.85714V20.9286H3.14286Z" fill="white"/>
<path d="M7.85714 20.9286H9.42857V16.2143H7.85714V20.9286Z" fill="white"/>
<path d="M9.42857 14.6429V16.2143H12.5714V14.6429H9.42857Z" fill="white"/>
<path d="M14.1429 16.2143H12.5714V20.9286H14.1429V16.2143Z" fill="white"/>
<path d="M14.1429 20.9286V22.5H18.8571V20.9286H14.1429Z" fill="white"/>
<path d="M18.8571 20.9286H20.4286V11.5H18.8571V20.9286Z" fill="white"/>
<path d="M12.5714 0.5H9.42857V2.07143H12.5714V0.5Z" fill="white"/>
</svg>
