<svg width="24" height="25" viewBox="0 0 24 25" fill="none" xmlns="http://www.w3.org/2000/svg">
<path d="M21.625 12.125H20.25V10.75H21.625V12.125Z" fill="white"/>
<path d="M17.5 14.875H16.125V13.5H17.5V14.875Z" fill="white"/>
<path d="M16.125 16.25H14.75V14.875H16.125V16.25Z" fill="white"/>
<path d="M16.125 19H14.75V17.625H16.125V19Z" fill="white"/>
<path d="M17.5 20.375H16.125V19H17.5V20.375Z" fill="white"/>
<path d="M18.875 21.75H17.5V20.375H18.875V21.75Z" fill="white"/>
<path d="M6.5 21.75H5.125V20.375H6.5V21.75Z" fill="white"/>
<path d="M7.875 20.375H6.5V19H7.875V20.375Z" fill="white"/>
<path d="M9.25 19H7.875V17.625H9.25V19Z" fill="white"/>
<path d="M9.25 16.25H7.875V14.875H9.25V16.25Z" fill="white"/>
<path d="M7.875 14.875H6.5V13.5H7.875V14.875Z" fill="white"/>
<path d="M3.75 12.125H2.375V10.75H3.75V12.125Z" fill="white"/>
<path d="M9.25 17.625H10.625V16.25H9.25V17.625Z" fill="white"/>
<path d="M13.375 17.625H14.75V16.25H13.375V17.625Z" fill="white"/>
<path d="M6.5 2.5V3.875H17.5V2.5H6.5Z" fill="white"/>
<path d="M2.375 3.875V5.25H6.5V3.875H2.375Z" fill="white"/>
<path d="M3.75 6.625H5.125V9.375H3.75V6.625Z" fill="white"/>
<path d="M2.375 5.25H1V10.75H2.375V5.25Z" fill="white"/>
<path d="M20.25 9.375H18.875V6.625H20.25V9.375Z" fill="white"/>
<path d="M17.5 3.875V5.25H21.625V3.875H17.5Z" fill="white"/>
<path d="M23 5.25H21.625V10.75H23V5.25Z" fill="white"/>
<path d="M20.25 13.5V12.125H17.5V13.5H20.25Z" fill="white"/>
<path d="M6.5 13.5V12.125H3.75V13.5H6.5Z" fill="white"/>
<path d="M17.5 23.125V21.75H6.5V23.125H17.5Z" fill="white"/>
</svg>
